<?xml version="1.0" encoding="UTF-8" standalone="no"?>
<!DOCTYPE svg PUBLIC "-//W3C//DTD SVG 1.1//EN" "http://www.w3.org/Graphics/SVG/1.1/DTD/svg11.dtd">
<svg width="100%" height="100%" viewBox="0 0 709 511" version="1.1" xmlns="http://www.w3.org/2000/svg" xmlns:xlink="http://www.w3.org/1999/xlink" xml:space="preserve" xmlns:serif="http://www.serif.com/" style="fill-rule:evenodd;clip-rule:evenodd;stroke-linecap:round;stroke-linejoin:round;stroke-miterlimit:1.5;">
    <g transform="matrix(0.036,0,0,0.036,0,0)">
        <g transform="matrix(0.83871,0,0,0.83871,-309.881,1956.06)">
            <circle cx="5157.48" cy="9881.89" r="1220.47" style="fill:none;stroke:rgb(255,0,0);stroke-width:33.12px;"/>
        </g>
        <g transform="matrix(0.129032,0,0,0.129032,2468.38,10693.4)">
            <circle cx="5157.48" cy="9881.89" r="1220.47" style="fill:none;stroke:rgb(255,0,0);stroke-width:215.28px;"/>
        </g>
        <g transform="matrix(0.129032,0,0,0.129032,3917.2,10693.4)">
            <circle cx="5157.48" cy="9881.89" r="1220.47" style="fill:none;stroke:rgb(255,0,0);stroke-width:215.28px;"/>
        </g>
        <g transform="matrix(1.125,0,0,1,-5413.37,2519.69)">
            <path d="M9448.82,7086.61C9289.29,7085.75 9291.34,6929.13 9291.34,6929.13C9291.34,6929.13 9290.67,6772.58 9448.82,6771.65" style="fill:none;stroke:rgb(255,0,0);stroke-width:26.1px;"/>
        </g>
        <g transform="matrix(-1.12499,0,0,1,17480.2,2519.69)">
            <path d="M9448.82,7086.61C9289.29,7085.75 9291.34,6929.13 9291.34,6929.13C9291.34,6929.13 9290.67,6772.58 9448.82,6771.65" style="fill:none;stroke:rgb(255,0,0);stroke-width:26.1px;"/>
        </g>
        <g transform="matrix(1.72917,0,0,1,-11122,2421.16)">
            <path d="M9448.82,7185.14L10393.7,7185.14" style="fill:none;stroke:rgb(255,0,0);stroke-width:19.67px;"/>
        </g>
        <g transform="matrix(1.72917,0,0,1,-11122,2519.69)">
            <path d="M9448.82,6771.65L10393.7,6771.65" style="fill:none;stroke:rgb(255,0,0);stroke-width:19.67px;"/>
        </g>
        <g transform="matrix(1.125,0,0,1,-5413.37,5118.11)">
            <path d="M9448.82,7086.61C9289.29,7085.75 9291.34,6929.13 9291.34,6929.13C9291.34,6929.13 9290.67,6772.58 9448.82,6771.65" style="fill:none;stroke:rgb(255,0,0);stroke-width:26.1px;"/>
        </g>
        <g transform="matrix(-1.12499,0,0,1,17263.5,5118.11)">
            <path d="M9448.82,7086.61C9289.29,7085.75 9291.34,6929.13 9291.34,6929.13C9291.34,6929.13 9290.67,6772.58 9448.82,6771.65" style="fill:none;stroke:rgb(255,0,0);stroke-width:26.1px;"/>
        </g>
        <g transform="matrix(1.49985,0,0,1,-8955.28,5019.58)">
            <path d="M9448.82,7185.14L10393.7,7185.14" style="fill:none;stroke:rgb(255,0,0);stroke-width:21.79px;"/>
        </g>
        <g transform="matrix(1.49985,0,0,1,-8955.28,5118.11)">
            <path d="M9448.82,6771.65L10393.7,6771.65" style="fill:none;stroke:rgb(255,0,0);stroke-width:21.79px;"/>
        </g>
        <g transform="matrix(0.363636,0,0,2.4,-100.215,-5070.87)">
            <path d="M6771.65,6377.95L8503.94,6377.95" style="fill:none;stroke:rgb(0,0,255);stroke-width:16.18px;"/>
        </g>
        <g transform="matrix(1.18182,0,0,3.5,-2963.49,-12086.6)">
            <path d="M6771.65,6377.95L8503.94,6377.95" style="fill:none;stroke:rgb(0,0,255);stroke-width:10.63px;"/>
        </g>
        <g transform="matrix(5.92571e-18,0.0967742,-0.0967742,5.92571e-18,3594.11,9264.67)">
            <circle cx="5157.48" cy="9881.89" r="1220.47" style="fill:none;stroke:rgb(255,0,0);stroke-width:287.04px;"/>
        </g>
        <g transform="matrix(5.92571e-18,0.0967742,-0.0967742,5.92571e-18,6231.9,9422.15)">
            <circle cx="5157.48" cy="9881.89" r="1220.47" style="fill:none;stroke:rgb(255,0,0);stroke-width:287.04px;"/>
        </g>
        <g transform="matrix(5.92571e-18,0.0967742,-0.0967742,5.92571e-18,6231.9,9422.15)">
            <circle cx="5157.48" cy="9881.89" r="1220.47" style="fill:none;stroke:rgb(255,0,0);stroke-width:287.04px;"/>
        </g>
        <g transform="matrix(0.0967742,0,0,0.0967742,4737.11,10146.1)">
            <circle cx="5157.48" cy="9881.89" r="1220.47" style="fill:none;stroke:rgb(255,0,0);stroke-width:287.04px;"/>
        </g>
        <g transform="matrix(0.0967742,0,0,0.0967742,2138.68,10146.1)">
            <circle cx="5157.48" cy="9881.89" r="1220.47" style="fill:none;stroke:rgb(255,0,0);stroke-width:287.04px;"/>
        </g>
        <g transform="matrix(1.6,-2.24194e-15,-5.16666e-16,0.175,-8204.72,7490.16)">
            <path d="M7637.8,9842.52L7637.8,6692.91" style="fill:none;stroke:rgb(0,0,255);stroke-width:24.41px;"/>
        </g>
        <g transform="matrix(3,0,0,0.365385,-18897.6,9159.6)">
            <path d="M7637.8,9842.52L7637.8,5748.03" style="fill:none;stroke:rgb(0,0,255);stroke-width:13px;"/>
        </g>
        <g transform="matrix(1,0,0,0.95,1181.1,4779.53)">
            <rect x="1574.8" y="4251.97" width="944.882" height="236.22" style="fill:none;stroke:rgb(255,0,0);stroke-width:28.48px;"/>
        </g>
        <g transform="matrix(1,0,0,0.95,2755.91,4779.53)">
            <rect x="1574.8" y="4251.97" width="944.882" height="236.22" style="fill:none;stroke:rgb(255,0,0);stroke-width:28.48px;"/>
        </g>
        <g transform="matrix(0.0967742,0,0,0.0967742,7138.68,11366.5)">
            <circle cx="5157.48" cy="9881.89" r="1220.47" style="fill:none;stroke:rgb(255,0,0);stroke-width:287.04px;"/>
        </g>
        <g transform="matrix(0.0967742,0,0,0.0967742,7531.05,11366.5)">
            <circle cx="5157.48" cy="9881.89" r="1220.47" style="fill:none;stroke:rgb(255,0,0);stroke-width:287.04px;"/>
        </g>
        <g transform="matrix(0.0967742,0,0,0.0967742,7335.99,10893.1)">
            <circle cx="5157.48" cy="9881.89" r="1220.47" style="fill:none;stroke:rgb(255,0,0);stroke-width:287.04px;"/>
        </g>
        <g transform="matrix(0.0967742,0,0,0.0967742,6941.38,10893.1)">
            <circle cx="5157.48" cy="9881.89" r="1220.47" style="fill:none;stroke:rgb(255,0,0);stroke-width:287.04px;"/>
        </g>
        <g transform="matrix(0.0967742,0,0,0.0967742,6744.98,11366.5)">
            <circle cx="5157.48" cy="9881.89" r="1220.47" style="fill:none;stroke:rgb(255,0,0);stroke-width:287.04px;"/>
        </g>
        <g transform="matrix(0.0967742,0,0,0.0967742,8635.41,8807.96)">
            <circle cx="5157.48" cy="9881.89" r="1220.47" style="fill:none;stroke:rgb(255,0,0);stroke-width:287.04px;"/>
        </g>
        <g transform="matrix(0.0967742,0,0,0.0967742,9027.78,8807.96)">
            <circle cx="5157.48" cy="9881.89" r="1220.47" style="fill:none;stroke:rgb(255,0,0);stroke-width:287.04px;"/>
        </g>
        <g transform="matrix(0.0967742,0,0,0.0967742,8832.72,8334.53)">
            <circle cx="5157.48" cy="9881.89" r="1220.47" style="fill:none;stroke:rgb(255,0,0);stroke-width:287.04px;"/>
        </g>
        <g transform="matrix(0.0967742,0,0,0.0967742,8438.11,8334.53)">
            <circle cx="5157.48" cy="9881.89" r="1220.47" style="fill:none;stroke:rgb(255,0,0);stroke-width:287.04px;"/>
        </g>
        <g transform="matrix(0.0967742,0,0,0.0967742,8241.71,8807.96)">
            <circle cx="5157.48" cy="9881.89" r="1220.47" style="fill:none;stroke:rgb(255,0,0);stroke-width:287.04px;"/>
        </g>
        <g transform="matrix(0.0967742,0,0,0.0967742,7124.43,9752.35)">
            <circle cx="5157.48" cy="9881.89" r="1220.47" style="fill:none;stroke:rgb(255,0,0);stroke-width:287.04px;"/>
        </g>
        <g transform="matrix(0.129032,0,0,0.129032,6972.31,7937.52)">
            <circle cx="5157.48" cy="9881.89" r="1220.47" style="fill:none;stroke:rgb(255,0,0);stroke-width:215.28px;"/>
        </g>
        <g transform="matrix(0.660181,4.00063e-16,6.7703e-16,1,1891.29,4330.71)">
            <path d="M7970.93,6377.95L8503.94,6377.95" style="fill:none;stroke:rgb(0,0,255);stroke-width:32.78px;"/>
        </g>
        <g transform="matrix(4.53243,0,0,1,-22950.4,4330.71)">
            <path d="M6771.65,6377.95L7304.66,6377.95" style="fill:none;stroke:rgb(0,0,255);stroke-width:8.46px;"/>
        </g>
        <g transform="matrix(1,8.1566e-18,5.72119e-18,1,-944.881,3464.57)">
            <path d="M9448.82,7086.61C9289.29,7085.75 9291.34,6929.13 9291.34,6929.13C9291.34,6929.13 9290.67,6772.58 9448.82,6771.65" style="fill:none;stroke:rgb(255,0,0);stroke-width:27.78px;"/>
        </g>
        <g transform="matrix(-0.999992,1.95985e-17,5.72119e-18,1,19258.9,3464.57)">
            <path d="M9448.82,7086.61C9289.29,7085.75 9291.34,6929.13 9291.34,6929.13C9291.34,6929.13 9290.67,6772.58 9448.82,6771.65" style="fill:none;stroke:rgb(255,0,0);stroke-width:27.78px;"/>
        </g>
        <g transform="matrix(1.38244,2.01497e-19,8.75615e-18,1,-4558.51,3366.04)">
            <path d="M9448.82,7185.14L10393.7,7185.14" style="fill:none;stroke:rgb(255,0,0);stroke-width:23.02px;"/>
        </g>
        <g transform="matrix(1.38244,-6.7374e-18,8.75615e-18,1,-4558.51,3464.57)">
            <path d="M9448.82,6771.65L10393.7,6771.65" style="fill:none;stroke:rgb(255,0,0);stroke-width:23.02px;"/>
        </g>
        <g transform="matrix(1,0,0,1,0.00127893,1102.36)">
            <g transform="matrix(1,8.1566e-18,5.72119e-18,1,-2125.98,1889.76)">
                <path d="M9448.82,7086.61C9289.29,7085.75 9291.34,6929.13 9291.34,6929.13C9291.34,6929.13 9290.67,6772.58 9448.82,6771.65" style="fill:none;stroke:rgb(255,0,0);stroke-width:27.78px;"/>
            </g>
            <g transform="matrix(-0.999992,1.95985e-17,5.72119e-18,1,17401.5,1889.76)">
                <path d="M9448.82,7086.61C9289.29,7085.75 9291.34,6929.13 9291.34,6929.13C9291.34,6929.13 9290.67,6772.58 9448.82,6771.65" style="fill:none;stroke:rgb(255,0,0);stroke-width:27.78px;"/>
            </g>
            <g transform="matrix(0.666667,2.01497e-19,4.22255e-18,1,1023.62,1791.23)">
                <path d="M9448.82,7185.14L10393.7,7185.14" style="fill:none;stroke:rgb(255,0,0);stroke-width:32.69px;"/>
            </g>
            <g transform="matrix(0.666667,-6.7374e-18,4.22255e-18,1,1023.62,1889.76)">
                <path d="M9448.82,6771.65L10393.7,6771.65" style="fill:none;stroke:rgb(255,0,0);stroke-width:32.69px;"/>
            </g>
        </g>
        <g transform="matrix(1,0,0,1,0.00127893,2519.69)">
            <g transform="matrix(1,8.1566e-18,5.72119e-18,1,-2125.98,1889.76)">
                <path d="M9448.82,7086.61C9289.29,7085.75 9291.34,6929.13 9291.34,6929.13C9291.34,6929.13 9290.67,6772.58 9448.82,6771.65" style="fill:none;stroke:rgb(255,0,0);stroke-width:27.78px;"/>
            </g>
            <g transform="matrix(-0.999992,1.95985e-17,5.72119e-18,1,17401.5,1889.76)">
                <path d="M9448.82,7086.61C9289.29,7085.75 9291.34,6929.13 9291.34,6929.13C9291.34,6929.13 9290.67,6772.58 9448.82,6771.65" style="fill:none;stroke:rgb(255,0,0);stroke-width:27.78px;"/>
            </g>
            <g transform="matrix(0.666667,2.01497e-19,4.22255e-18,1,1023.62,1791.23)">
                <path d="M9448.82,7185.14L10393.7,7185.14" style="fill:none;stroke:rgb(255,0,0);stroke-width:32.69px;"/>
            </g>
            <g transform="matrix(0.666667,-6.7374e-18,4.22255e-18,1,1023.62,1889.76)">
                <path d="M9448.82,6771.65L10393.7,6771.65" style="fill:none;stroke:rgb(255,0,0);stroke-width:32.69px;"/>
            </g>
        </g>
        <g transform="matrix(0.918794,0,0,1,191.826,787.402)">
            <path d="M10846.5,7874.02L2362.2,7874.02L2362.2,11968.5L10846.5,11968.5L10846.5,7874.02Z" style="fill:none;stroke:rgb(255,0,0);stroke-width:28.93px;"/>
        </g>
        <g transform="matrix(0.451613,0,0,0.451613,4993.65,2867.92)">
            <circle cx="5157.48" cy="9881.89" r="1220.47" style="fill:none;stroke:rgb(255,0,0);stroke-width:61.51px;"/>
        </g>
        <g transform="matrix(5.92571e-18,0.0967742,-0.0967742,5.92571e-18,9538.99,6508.76)">
            <circle cx="5157.48" cy="9881.89" r="1220.47" style="fill:none;stroke:rgb(255,0,0);stroke-width:287.04px;"/>
        </g>
        <g transform="matrix(5.92571e-18,0.0967742,-0.0967742,5.92571e-18,6901.19,6351.28)">
            <circle cx="5157.48" cy="9881.89" r="1220.47" style="fill:none;stroke:rgb(255,0,0);stroke-width:287.04px;"/>
        </g>
        <g transform="matrix(0.0967742,0,0,0.0967742,8044.2,7232.66)">
            <circle cx="5157.48" cy="9881.89" r="1220.47" style="fill:none;stroke:rgb(255,0,0);stroke-width:287.04px;"/>
        </g>
        <g transform="matrix(0.0967742,0,0,0.0967742,5445.77,7232.66)">
            <circle cx="5157.48" cy="9881.89" r="1220.47" style="fill:none;stroke:rgb(255,0,0);stroke-width:287.04px;"/>
        </g>
        <g transform="matrix(0.618024,0,0,2.4,1484.25,-7984.25)">
            <path d="M6771.65,6377.95L8503.94,6377.95" style="fill:none;stroke:rgb(0,0,255);stroke-width:15.85px;"/>
        </g>
        <g transform="matrix(0.545455,0,0,3.5,4180.39,-15000)">
            <path d="M6771.65,6377.95L8503.94,6377.95" style="fill:none;stroke:rgb(0,0,255);stroke-width:11.09px;"/>
        </g>
        <g transform="matrix(1.6,-7.99717e-15,-9.16494e-16,0.161995,-4897.64,5177.22)">
            <path d="M7637.8,9842.52L7637.8,6692.91" style="fill:none;stroke:rgb(0,0,255);stroke-width:24.43px;"/>
        </g>
        <g transform="matrix(3,0,0,0.153846,-15590.6,6989.7)">
            <path d="M7637.8,9842.52L7637.8,5748.03" style="fill:none;stroke:rgb(0,0,255);stroke-width:13.08px;"/>
        </g>
        <g transform="matrix(1,0,0,1,3307.09,4803.15)">
            <path d="M3399.69,1653.54C3573.51,1529.62 3786.18,1456.69 4015.75,1456.69C4245.32,1456.69 4457.98,1529.62 4631.81,1653.54L4793.03,1766.04L4949.15,1889.76L5039.37,1968.5L5511.81,1968.5L5511.81,3700.79L2362.2,3700.79L2362.2,1653.54L3399.69,1653.54Z" style="fill:none;stroke:rgb(255,0,0);stroke-width:27.78px;"/>
        </g>
        <g transform="matrix(1.0098,0,0,0.988506,-101.127,4896.37)">
            <path d="M2283.47,1259.84L2283.47,8110.24L10315,8110.24" style="fill:none;stroke:rgb(0,0,255);stroke-width:27.8px;"/>
        </g>
        <g transform="matrix(1.0098,0,0,0.988506,-101.127,4896.37)">
            <path d="M10315,8110.24L10315,1259.84L2283.47,1259.84" style="fill:none;stroke:rgb(0,0,255);stroke-width:27.8px;"/>
        </g>
        <g transform="matrix(1,-1.21771e-18,-1.21771e-18,-1,-3779.53,20393.7)">
            <path d="M9055.12,13154L9055.12,13862.7L9291.34,14098.9C9291.34,14098.9 8146.81,14101.9 7638.67,14094.5C6889.69,14083.6 6650.89,13791.7 6457.83,13425C6260.83,13050.7 6141.73,12126 6141.73,12126L6519.69,12126L6519.69,11889.8L7496.06,11889.8L7496.06,12126L8094.49,12126L8094.49,11889.8L9070.87,11889.8L9067.65,12760.3L9291.34,12760.3L9291.34,13154L9055.12,13154Z" style="fill:none;stroke:rgb(255,0,0);stroke-opacity:0.8;stroke-width:27.78px;"/>
        </g>
        <g transform="matrix(0.387097,-5.83287e-19,1.15144e-18,-0.387097,2019.3,11264.5)">
            <circle cx="5157.48" cy="9881.89" r="1220.47" style="fill:none;stroke:rgb(255,0,0);stroke-width:71.76px;"/>
        </g>
        <g transform="matrix(0.0645161,4.73457e-20,-1.69495e-19,-0.0645161,2816.87,7330.45)">
            <circle cx="5157.48" cy="9881.89" r="1220.47" style="fill:none;stroke:rgb(255,0,0);stroke-width:430.56px;"/>
        </g>
        <g transform="matrix(0.295455,2.19856e-19,1.31918e-18,1,1030.78,1061.3)">
            <path d="M5039.37,6377.95L8503.94,6377.95" style="fill:none;stroke:rgb(0,0,255);stroke-width:37.67px;"/>
        </g>
        <g transform="matrix(0.208333,-2.53689e-19,1.21771e-18,1,3077.43,1061.3)">
            <path d="M6771.65,6377.95L11685,6377.95" style="fill:none;stroke:rgb(0,0,255);stroke-width:38.46px;"/>
        </g>
        <g transform="matrix(2.72512e-17,-0.379747,1,5.15238e-17,-2362.2,9528.55)">
            <path d="M6771.65,6377.95L8503.94,6377.95" style="fill:none;stroke:rgb(0,0,255);stroke-width:36.72px;"/>
        </g>
        <g transform="matrix(1,-7.28657e-19,3.37099e-19,0.0857057,-3622.05,7424.16)">
            <path d="M7637.8,9842.52L7637.8,5748.03" style="fill:none;stroke:rgb(0,0,255);stroke-width:39.14px;"/>
        </g>
    </g>
</svg>
